<svg id="Sonstioges" xmlns="http://www.w3.org/2000/svg" viewBox="0 0 128 128"><title>separator</title><path d="M34.91,72.72a8.73,8.73,0,0,1-8.73,8.73H8.73A8.73,8.73,0,0,1,0,72.72V55.28a8.73,8.73,0,0,1,8.73-8.73H26.18a8.73,8.73,0,0,1,8.73,8.73Zm46.55,0a8.73,8.73,0,0,1-8.73,8.73H55.27a8.73,8.73,0,0,1-8.73-8.73V55.28a8.73,8.73,0,0,1,8.73-8.73H72.73a8.73,8.73,0,0,1,8.73,8.73Zm46.55,0a8.73,8.73,0,0,1-8.73,8.73H101.82a8.73,8.73,0,0,1-8.73-8.73V55.28a8.73,8.73,0,0,1,8.73-8.73h17.45A8.73,8.73,0,0,1,128,55.28Z" fill="#d8d8d8"/></svg>